Coordinates
version=1
nRows=17
nColumns=36
inDegrees=yes

Units are S.I. units (second, meters, Newtons, ...)
If the header above contains a line with 'inDegrees', this indicates whether rotational values are in degrees (yes) or radians (no).

endheader
time	pelvis_tilt	pelvis_list	pelvis_rotation	pelvis_tx	pelvis_ty	pelvis_tz	hip_flexion_r	hip_adduction_r	hip_rotation_r	knee_angle_r	knee_angle_r_beta	ankle_angle_r	subtalar_angle_r	mtp_angle_r	hip_flexion_l	hip_adduction_l	hip_rotation_l	knee_angle_l	knee_angle_l_beta	ankle_angle_l	subtalar_angle_l	mtp_angle_l	lumbar_extension	lumbar_bending	lumbar_rotation	arm_flex_r	arm_add_r	arm_rot_r	elbow_flex_r	pro_sup_r	arm_flex_l	arm_add_l	arm_rot_l	elbow_flex_l	pro_sup_l
      5.98333330	    -14.49708248	      4.23458955	     -9.60285697	      1.00824595	      0.66857553	      0.11606161	     64.79445043	    -14.57266089	      0.65720059	     88.66243992	      1.54745150	     37.87686236	     -7.35180522	     -7.49999987	     62.32503706	    -13.31018072	      2.81513388	     90.11007888	      1.57271757	     40.53181546	     -5.51008225	     -7.49999987	    -24.48438863	      2.91966605	     -3.34856964	     17.01275913	    -10.99897417	     14.68628291	     29.99616164	     80.93283006	     15.90300047	    -16.43784396	     10.43210547	     30.65526171	     79.31248059
      6.00000000	    -13.84239169	      4.20261250	     -9.73099828	      1.00572294	      0.67262213	      0.11746263	     63.73333896	    -14.78139242	      0.39193417	     88.08730617	      1.53741352	     38.14916459	     -6.64821231	     -7.49999987	     61.19827150	    -13.27913511	      2.67431955	     89.25102662	      1.55772428	     39.96826491	     -5.54878632	     -7.49999987	    -25.69317619	      2.64401127	     -3.24837147	     18.37299683	    -10.45462073	     15.68998268	     28.21479593	     79.86592361	     16.60262695	    -16.31807836	     12.37836191	     29.57649609	     78.00311563
      6.01666670	    -13.05923472	      4.17869512	     -9.74265686	      1.00869502	      0.67877542	      0.11596607	     62.30041532	    -15.26335146	      0.00091963	     87.14566129	      1.52097872	     37.34665296	     -6.73857739	     -7.49999987	     59.73741970	    -13.10356280	      2.40564841	     88.39792222	      1.54283479	     39.37865905	     -5.52219816	     -7.49999987	    -26.62735653	      2.59005235	     -3.39662310	     18.90320242	    -10.21781606	     16.24873708	     27.51453539	     78.53435426	     16.88127677	    -16.14083763	     13.95421793	     29.23026931	     76.54318516
      6.03333330	    -12.14624890	      4.08491393	     -9.81711961	      1.00928511	      0.68573619	      0.11803214	     60.32978494	    -15.36325209	     -0.49899105	     85.70914875	      1.49590684	     36.36069980	     -7.35448605	     -7.49999987	     57.97074071	    -12.98364707	      2.15439874	     87.07722419	      1.51978427	     38.42619418	     -5.80570024	     -7.49999987	    -27.14675692	      2.36793054	     -3.20670351	     18.89117517	    -10.20258499	     17.14872082	     26.97185408	     78.12987455	     17.04844336	    -16.02034784	     16.62744061	     29.12940753	     75.75469889
      6.05000000	    -11.34340736	      3.82753411	     -9.80677388	      1.01068201	      0.69217779	      0.11863191	     58.15706160	    -15.34504512	     -1.19558570	     84.07140513	      1.46732283	     36.07215806	     -7.30394999	     -7.49999987	     56.17703523	    -12.88154748	      2.13217969	     85.71785723	      1.49605884	     37.97077965	     -5.59605144	     -7.49999987	    -27.21367884	      2.59056292	     -3.67801988	     18.38207356	    -10.11208850	     16.54389268	     27.92501810	     76.79989631	     16.32166809	    -15.78086701	     16.81891289	     29.78881323	     74.52158211
      6.06666670	    -10.86724386	      3.77549811	     -9.92917418	      1.00777585	      0.70436250	      0.11844552	     56.34595209	    -15.02013428	     -1.57511198	     81.82439002	      1.42810501	     35.18812082	     -7.65626496	     -7.49999987	     54.39296591	    -12.70518028	      1.69150658	     83.53617547	      1.45798131	     37.03803891	     -6.18399533	     -7.49999987	    -26.75194220	      2.50167083	     -3.59971353	     18.07081479	    -10.13158692	     16.46757591	     27.75904622	     77.01029007	     16.07384493	    -15.32264048	     17.37252109	     30.05362345	     74.71506929
      6.08333330	    -11.30601365	      3.87512523	     -9.89126551	      1.00918935	      0.71442549	      0.11996272	     55.25744648	    -14.68369614	     -1.99468335	     79.31511313	      1.38430987	     34.85318609	     -7.43865426	     -7.49999987	     53.39476532	    -12.49635613	      1.26418470	     81.00225490	      1.41375605	     36.48514723	     -5.90439678	     -7.49999987	    -24.91414319	      2.38861647	     -3.76323207	     17.36889482	    -10.15828746	     16.48602674	     27.85786941	     77.01460383	     15.28630622	    -14.89697821	     17.59330294	     30.25139068	     74.74274716
      6.10000000	    -10.75317659	      3.65104950	     -9.92037134	      1.01227363	      0.72983776	      0.12155641	     52.37076262	    -14.13261965	     -2.65835165	     75.88234420	      1.32439675	     33.86772122	     -7.79804835	     -7.49999987	     50.81734366	    -12.44914887	      0.83793656	     77.68498227	      1.35585872	     34.86893644	     -6.45257385	     -7.49999987	    -24.34873272	      2.44456821	     -3.79285586	     16.52890264	    -10.37796726	     15.84429580	     28.84732755	     75.71628558	     14.52652148	    -14.69741740	     18.84363011	     31.48292950	     73.75216084
      6.11666670	    -10.64106808	      3.57289711	     -9.74222712	      1.01435539	      0.74569006	      0.12399455	     49.47049503	    -13.70931128	     -3.51463206	     71.71331469	      1.25163346	     32.92198529	     -7.36860443	     -7.49999987	     48.50139864	    -12.28026348	      0.41736554	     73.79260856	      1.28792398	     33.20037912	     -6.34848401	     -7.49999987	    -22.99626728	      2.47361721	     -4.04341374	     15.53543634	    -10.33143864	     15.12184986	     29.50379277	     74.44896184	     13.79591812	    -14.32751376	     18.75964058	     32.36330820	     72.70935377
      6.13333330	    -10.69311331	      3.72959144	     -9.62391227	      1.01810766	      0.76238977	      0.12686532	     46.73399880	    -13.29408792	     -4.11029742	     67.20165981	      1.17289023	     30.89775004	     -7.70983489	     -7.49999987	     45.80007539	    -12.00080952	     -0.27361676	     69.09377391	      1.20591385	     31.46980101	     -6.22939963	     -7.49999987	    -21.19376603	      2.13465378	     -3.85366323	     14.00855146	    -10.29149962	     12.85433648	     29.80404236	     82.67762243	     13.24929816	    -13.91785323	     19.09035509	     32.78945595	     79.91526732
      6.15000000	    -10.59091469	      3.77689474	     -9.43345869	      1.02038597	      0.77962050	      0.12901788	     43.68646062	    -12.87047554	     -5.02615820	     62.27531065	      1.08690921	     28.80471269	     -7.89094124	     -7.49999987	     42.81056355	    -11.65211532	     -0.99007523	     64.15015703	      1.11963146	     29.42419795	     -6.12160376	     -7.49999987	    -19.55108325	      1.91567846	     -4.03408337	     12.88265306	    -10.27379668	     12.77692021	     30.02720187	     81.22359020	     12.48528200	    -13.62262496	     19.24688865	     33.39717083	     78.71375067
      6.16666670	    -10.86268253	      3.86346364	     -9.09354854	      1.02165276	      0.79412292	      0.12926459	     41.24094630	    -12.53536989	     -5.86750289	     57.52850358	      1.00406180	     26.71990062	     -8.05798168	     -7.49999987	     40.44369788	    -11.23787790	     -1.70892120	     59.26957179	      1.03444917	     27.33680764	     -6.16128051	     -7.49999987	    -17.35576467	      1.70575093	     -4.17407918	     11.63570614	    -10.46729830	     13.00596538	     30.03399556	     81.29025944	     11.75562500	    -13.35922705	     19.62244731	     34.13206988	     78.84749185
      6.18333330	    -11.03891635	      3.93046806	     -8.77960830	      1.02132210	      0.80600472	      0.13218678	     38.70862803	    -12.04399159	     -6.72155199	     52.71701545	      0.92008549	     24.90771922	     -8.67254488	     -7.49999987	     38.21389635	    -10.95669209	     -2.57283040	     54.65329661	      0.95387997	     25.13545423	     -6.57726363	     -7.49999987	    -15.51802786	      1.44453916	     -4.16709315	     10.68022749	    -10.73552587	     13.30420074	     30.19255853	     81.46982287	     11.33466519	    -13.30318859	     20.05716492	     35.14951016	     79.13613648
      6.20000000	    -11.17859671	      4.16357984	     -8.37475660	      1.02823434	      0.82598835	      0.13245019	     35.55480032	    -11.92712481	     -7.82179288	     47.22508630	      0.82423325	     22.29162950	     -8.61098653	     -7.49999987	     35.40673505	    -10.45868457	     -3.76440657	     49.20942312	      0.85886646	     22.18934556	     -6.34414776	     -7.49999987	    -13.58329482	      1.16732818	     -4.39649842	      9.54288400	    -10.92108972	     13.36417336	     30.22746340	     80.99191625	     10.86322099	    -13.09771760	     20.46843959	     35.68116046	     78.86211780
      6.21666670	    -11.25504042	      4.37154064	     -8.17508686	      1.03079579	      0.83861105	      0.13539954	     32.69112191	    -11.55887362	     -8.73622191	     41.99502952	      0.73295153	     19.72873878	     -8.47765267	     -7.49999987	     32.41795938	    -10.00552368	     -4.89194764	     43.47450152	      0.75877319	     19.30812756	     -5.87574003	     -7.49999987	    -11.93396732	      0.78729086	     -4.42667008	      8.55244438	    -11.14867036	     13.61339917	     30.17481535	     81.12610613	     10.42737483	    -13.09789808	     20.84415838	     36.31803922	     79.12179780
      6.23333330	    -11.30561591	      4.61231684	     -8.12395889	      1.03432373	      0.84700304	      0.13745881	     29.88355901	    -11.21346632	     -9.60980157	     36.94922579	      0.64488565	     17.67806547	     -7.73148321	     -7.49999987	     29.55579981	     -9.55378413	     -6.02916462	     38.05459094	      0.66417791	     16.52689546	     -5.41181421	     -7.49999987	    -10.20875851	      0.36086465	     -4.36070368	      7.55550128	    -11.39823765	     13.83387424	     30.21401057	     80.74009470	      9.88631685	    -13.04493696	     21.19226710	     36.75551306	     78.96702789
      6.25000000	    -11.49355123	      4.87340401	     -8.16393719	      1.03934506	      0.85586682	      0.14101267	     27.28546316	    -10.80024567	    -10.53356988	     32.12062464	      0.56061066	     15.99178066	     -6.88620511	     -7.49999987	     26.60827202	     -9.11039750	     -7.15875669	     32.43764487	      0.56614370	     14.08658144	     -4.54231235	     -7.49999987	     -8.30730804	     -0.17976573	     -4.17469910	      6.35746664	    -11.58256636	     14.15976586	     30.02113432	     81.09541676	      9.20112057	    -13.15992056	     21.53735703	     37.27429078	     79.51185500
